<?xml version="1.0" encoding="UTF-8" standalone="no"?>
<!-- Created with Inkscape (http://www.inkscape.org/) -->

<svg
   version="1.1"
   id="svg1"
   width="79.1875"
   height="171.24414"
   viewBox="0 0 79.187501 171.24414"
   sodipodi:docname="fade.svg"
   inkscape:version="1.3.2 (091e20ef0f, 2023-11-25, custom)"
   xmlns:inkscape="http://www.inkscape.org/namespaces/inkscape"
   xmlns:sodipodi="http://sodipodi.sourceforge.net/DTD/sodipodi-0.dtd"
   xmlns="http://www.w3.org/2000/svg"
   xmlns:svg="http://www.w3.org/2000/svg">
  <defs
     id="defs1" />
  <sodipodi:namedview
     id="namedview1"
     pagecolor="#ffffff"
     bordercolor="#666666"
     borderopacity="1.0"
     inkscape:showpageshadow="2"
     inkscape:pageopacity="0.0"
     inkscape:pagecheckerboard="0"
     inkscape:deskcolor="#d1d1d1"
     showguides="false"
     inkscape:zoom="2.6818182"
     inkscape:cx="59.474576"
     inkscape:cy="117.64407"
     inkscape:window-width="1914"
     inkscape:window-height="1036"
     inkscape:window-x="0"
     inkscape:window-y="38"
     inkscape:window-maximized="1"
     inkscape:current-layer="g1" />
  <g
     inkscape:groupmode="layer"
     inkscape:label="Image"
     id="g1"
     transform="translate(0,-4.7558594)">
    <path
       id="rect1"
       style="opacity:1;fill:#212529;fill-opacity:1;stroke:none;stroke-width:0.624492;stroke-linejoin:round;stroke-opacity:1"
       d="M 0,4.7558594 V 10.695312 L 2.96875,7.7265625 Z m 19.796875,0 -2.96875,2.9707031 2.96875,2.9687495 2.96875,-2.9687495 z m 19.796875,0 -2.96875,2.9707031 2.96875,2.9687495 2.970703,-2.9687495 z m 19.796875,0 -2.96875,2.9707031 2.96875,2.9687495 2.970703,-2.9687495 z m 19.796875,0 -2.96875,2.9707031 2.96875,2.9687495 z M 9.8984375,14.160156 6.4335938,17.625 9.8984375,21.087891 13.363281,17.625 Z m 19.7968745,0 -3.464843,3.464844 3.464843,3.462891 3.464844,-3.462891 z m 19.796876,0 -3.464844,3.464844 3.464844,3.462891 3.464843,-3.462891 z m 19.796874,0 L 65.824219,17.625 69.289062,21.087891 72.753906,17.625 Z M 0,23.5625 v 7.919922 l 3.9589844,-3.958984 z m 19.796875,0 -3.958984,3.960938 3.958984,3.958984 3.958984,-3.958984 z m 19.796875,0 -3.958984,3.960938 3.958984,3.958984 3.958984,-3.958984 z m 19.796875,0 -3.958984,3.960938 3.958984,3.958984 3.958984,-3.958984 z m 19.796875,0 -3.958984,3.960938 3.958984,3.958984 z M 9.8984375,32.966797 5.4433594,37.421875 9.8984375,41.875 14.353516,37.421875 Z m 19.7968745,0 -4.453124,4.455078 4.453124,4.453125 4.455079,-4.453125 z m 19.796876,0 -4.453126,4.455078 4.453126,4.453125 4.455078,-4.453125 z m 19.796874,0 -4.453124,4.455078 4.453124,4.453125 4.455079,-4.453125 z M 0,42.371094 v 9.898437 l 4.9492188,-4.949219 z m 19.796875,0 -4.949219,4.949218 4.949219,4.949219 4.949219,-4.949219 z m 19.796875,0 -4.949219,4.949218 4.949219,4.949219 4.949219,-4.949219 z m 19.796875,0 -4.949219,4.949218 4.949219,4.949219 4.949219,-4.949219 z m 19.796875,0 -4.949219,4.949218 4.949219,4.949219 z M 9.8984375,51.773438 4.4550781,57.21875 9.8984375,62.662109 15.341797,57.21875 Z m 19.7968745,0 -5.443359,5.445312 5.443359,5.443359 5.445313,-5.443359 z m 19.796876,0 -5.44336,5.445312 5.44336,5.443359 5.445312,-5.443359 z m 19.796874,0 -5.443359,5.445312 5.443359,5.443359 5.445313,-5.443359 z M 0,61.177734 v 11.878907 l 5.9394531,-5.939453 z m 19.796875,0 -5.939453,5.939454 5.939453,5.939453 5.939453,-5.939453 z m 19.796875,0 -5.939453,5.939454 5.939453,5.939453 5.939453,-5.939453 z m 19.796875,0 -5.939453,5.939454 5.939453,5.939453 5.939453,-5.939453 z m 19.796875,0 -5.939453,5.939454 5.939453,5.939453 z m -69.2890625,9.404297 -6.4335937,6.433594 6.4335937,6.433594 6.4335935,-6.433594 z m 19.7968745,0 -6.433593,6.433594 6.433593,6.433594 6.433594,-6.433594 z m 19.796876,0 -6.433594,6.433594 6.433594,6.433594 6.433593,-6.433594 z m 19.796874,0 -6.433593,6.433594 6.433593,6.433594 6.433594,-6.433594 z M 0,79.984375 v 13.857422 l 6.9296875,-6.927735 z m 19.796875,0 -6.929687,6.929687 6.929687,6.927735 6.929687,-6.927735 z m 19.796875,0 -6.927734,6.929687 6.927734,6.927735 6.929688,-6.927735 z m 19.796875,0 -6.927734,6.929687 6.927734,6.927735 6.929687,-6.927735 z m 19.796875,0 -6.927734,6.929687 6.927734,6.927735 z M 9.8984375,89.388672 2.4746094,96.8125 9.8984375,104.23633 17.322266,96.8125 Z m 19.7968745,0 -7.423828,7.423828 7.423828,7.42383 7.423829,-7.42383 z m 19.796876,0 -7.423829,7.423828 7.423829,7.42383 7.423828,-7.42383 z m 19.796874,0 -7.423828,7.423828 7.423828,7.42383 7.423829,-7.42383 z M 0,98.791016 v 15.837894 l 7.9179688,-7.91797 z m 19.796875,0 -7.917969,7.919924 7.917969,7.91797 7.917969,-7.91797 z m 19.796875,0 -7.917969,7.919924 7.917969,7.91797 7.919922,-7.91797 z m 19.796875,0 -7.917969,7.919924 7.917969,7.91797 7.919922,-7.91797 z m 19.796875,0 -7.917969,7.919924 7.917969,7.91797 z m -69.2890625,9.404294 -8.4140625,8.41407 8.4140625,8.41406 8.4140625,-8.41406 z m 19.7968745,0 -8.414062,8.41407 8.414062,8.41406 8.414063,-8.41406 z m 19.796876,0 -8.414063,8.41407 8.414063,8.41406 8.414062,-8.41406 z m 19.796874,0 -8.414062,8.41407 8.414062,8.41406 8.414063,-8.41406 z M 0,117.59961 v 17.81641 l 8.9082031,-8.90821 z m 19.796875,0 -8.908203,8.9082 8.908203,8.90821 8.908203,-8.90821 z m 19.796875,0 -8.908203,8.9082 8.908203,8.90821 8.908203,-8.90821 z m 19.796875,0 -8.908203,8.9082 8.908203,8.90821 8.908203,-8.90821 z m 19.796875,0 -8.908203,8.9082 8.908203,8.90821 z m -69.2890625,9.40234 -9.40429688,9.4043 9.40429688,9.4043 9.4042965,-9.4043 z m 19.7968745,0 -9.404296,9.4043 9.404296,9.4043 9.404297,-9.4043 z m 19.796876,0 -9.402344,9.4043 9.402344,9.4043 9.404296,-9.4043 z m 19.796874,0 -9.402343,9.4043 9.402343,9.4043 9.404297,-9.4043 z M 0,136.40625 V 156.20312 163.0625 176 H 19.796875 39.59375 59.390625 79.1875 v -12.9375 -6.85938 -19.79687 l -9.898438,9.89844 -9.898437,-9.89844 -9.898437,9.89844 -9.898438,-9.89844 -9.898438,9.89844 -9.898437,-9.89844 -9.8984375,9.89844 z" />
  </g>
</svg>
